<mxfile host="app.diagrams.net" agent="Mozilla/5.0 (Macintosh; Intel Mac OS X 10_15_7) AppleWebKit/537.36 (KHTML, like Gecko) Chrome/137.0.0.0 Safari/537.36" version="27.1.6">
  <diagram name="Page-1" id="zdGDvrQgGpO8SjOmJl9_">
    <mxGraphModel dx="4864" dy="3252" grid="0" gridSize="10" guides="1" tooltips="1" connect="1" arrows="1" fold="1" page="1" pageScale="1" pageWidth="1654" pageHeight="1169" background="light-dark(#E6F6F7,#FFFFFF)" math="0" shadow="0">
      <root>
        <mxCell id="0" />
        <mxCell id="1" parent="0" />
        <mxCell id="yWbwvxqH2LuNOncUtTr_-1" value="Public Subnet" style="sketch=0;outlineConnect=0;gradientColor=none;html=1;whiteSpace=wrap;fontSize=12;fontStyle=0;shape=mxgraph.aws4.group;grIcon=mxgraph.aws4.group_subnet;strokeColor=light-dark(#879196,#7AA116);fillColor=none;verticalAlign=top;align=left;spacingLeft=30;fontColor=#879196;dashed=0;movable=1;resizable=1;rotatable=1;deletable=1;editable=1;locked=0;connectable=1;" parent="1" vertex="1">
          <mxGeometry x="622" y="278" width="276" height="528" as="geometry" />
        </mxCell>
        <mxCell id="yWbwvxqH2LuNOncUtTr_-2" value="&lt;meta charset=&quot;utf-8&quot;&gt;&lt;span style=&quot;color: rgb(0, 0, 0); font-family: Helvetica; font-size: 12px; font-style: normal; font-variant-ligatures: normal; font-variant-caps: normal; font-weight: 400; letter-spacing: normal; orphans: 2; text-align: center; text-indent: 0px; text-transform: none; widows: 2; word-spacing: 0px; -webkit-text-stroke-width: 0px; white-space: normal; background-color: rgb(27, 29, 30); text-decoration-thickness: initial; text-decoration-style: initial; text-decoration-color: initial; display: inline !important; float: none;&quot;&gt;SQS VPC Endpoint&lt;/span&gt;" style="sketch=0;outlineConnect=0;gradientColor=none;html=1;whiteSpace=wrap;fontSize=12;fontStyle=0;shape=mxgraph.aws4.group;grIcon=mxgraph.aws4.group_aws_cloud;strokeColor=#AAB7B8;fillColor=none;verticalAlign=top;align=left;spacingLeft=30;fontColor=#AAB7B8;dashed=0;movable=1;resizable=1;rotatable=1;deletable=1;editable=1;locked=0;connectable=1;" parent="1" vertex="1">
          <mxGeometry x="334" y="40" width="1223" height="969" as="geometry" />
        </mxCell>
        <mxCell id="yWbwvxqH2LuNOncUtTr_-3" value="Private Subnet" style="sketch=0;outlineConnect=0;gradientColor=none;html=1;whiteSpace=wrap;fontSize=12;fontStyle=0;shape=mxgraph.aws4.group;grIcon=mxgraph.aws4.group_subnet;strokeColor=#67AB9F;fillColor=none;verticalAlign=top;align=left;spacingLeft=30;fontColor=#879196;dashed=0;" parent="1" vertex="1">
          <mxGeometry x="957" y="283" width="580" height="523" as="geometry" />
        </mxCell>
        <mxCell id="yWbwvxqH2LuNOncUtTr_-4" value="Availability Zone A" style="fillColor=none;strokeColor=#147EBA;dashed=1;verticalAlign=top;fontStyle=0;fontColor=#147EBA;whiteSpace=wrap;html=1;" parent="1" vertex="1">
          <mxGeometry x="984" y="293" width="539" height="242" as="geometry" />
        </mxCell>
        <mxCell id="yWbwvxqH2LuNOncUtTr_-5" value="Availability Zone B" style="fillColor=none;strokeColor=#147EBA;dashed=1;verticalAlign=top;fontStyle=0;fontColor=#147EBA;whiteSpace=wrap;html=1;" parent="1" vertex="1">
          <mxGeometry x="983" y="546" width="540" height="255" as="geometry" />
        </mxCell>
        <mxCell id="yWbwvxqH2LuNOncUtTr_-6" value="" style="sketch=0;points=[[0,0,0],[0.25,0,0],[0.5,0,0],[0.75,0,0],[1,0,0],[0,1,0],[0.25,1,0],[0.5,1,0],[0.75,1,0],[1,1,0],[0,0.25,0],[0,0.5,0],[0,0.75,0],[1,0.25,0],[1,0.5,0],[1,0.75,0]];outlineConnect=0;fontColor=#232F3E;fillColor=#ED7100;strokeColor=#ffffff;dashed=0;verticalLabelPosition=bottom;verticalAlign=top;align=center;html=1;fontSize=12;fontStyle=0;aspect=fixed;shape=mxgraph.aws4.resourceIcon;resIcon=mxgraph.aws4.ec2;" parent="1" vertex="1">
          <mxGeometry x="725" y="635" width="78" height="78" as="geometry" />
        </mxCell>
        <mxCell id="yWbwvxqH2LuNOncUtTr_-7" value="&lt;font style=&quot;color: light-dark(rgb(0, 0, 0), rgb(0, 0, 0));&quot;&gt;Bastion Host&lt;/font&gt;" style="text;strokeColor=none;align=center;fillColor=none;html=1;verticalAlign=middle;whiteSpace=wrap;rounded=0;" parent="1" vertex="1">
          <mxGeometry x="738" y="719" width="60" height="30" as="geometry" />
        </mxCell>
        <mxCell id="yWbwvxqH2LuNOncUtTr_-8" style="edgeStyle=orthogonalEdgeStyle;rounded=0;orthogonalLoop=1;jettySize=auto;html=1;strokeColor=light-dark(#000000,#000000);startArrow=classic;startFill=1;" parent="1" source="yWbwvxqH2LuNOncUtTr_-9" target="yWbwvxqH2LuNOncUtTr_-66" edge="1">
          <mxGeometry relative="1" as="geometry">
            <mxPoint x="1013" y="415" as="targetPoint" />
            <Array as="points">
              <mxPoint x="909" y="536" />
              <mxPoint x="909" y="415" />
            </Array>
          </mxGeometry>
        </mxCell>
        <mxCell id="yWbwvxqH2LuNOncUtTr_-9" value="" style="sketch=0;outlineConnect=0;fontColor=#232F3E;gradientColor=none;fillColor=#8C4FFF;strokeColor=none;dashed=0;verticalLabelPosition=bottom;verticalAlign=top;align=center;html=1;fontSize=12;fontStyle=0;aspect=fixed;pointerEvents=1;shape=mxgraph.aws4.application_load_balancer;" parent="1" vertex="1">
          <mxGeometry x="729" y="493" width="78" height="78" as="geometry" />
        </mxCell>
        <mxCell id="yWbwvxqH2LuNOncUtTr_-10" value="" style="group" parent="1" connectable="0" vertex="1">
          <mxGeometry x="40" y="393" width="98.52999999999997" height="138" as="geometry" />
        </mxCell>
        <mxCell id="yWbwvxqH2LuNOncUtTr_-11" value="" style="sketch=0;outlineConnect=0;fontColor=#232F3E;gradientColor=none;fillColor=light-dark(#232F3D,#000000);strokeColor=none;dashed=0;verticalLabelPosition=bottom;verticalAlign=top;align=center;html=1;fontSize=12;fontStyle=0;aspect=fixed;pointerEvents=1;shape=mxgraph.aws4.client;" parent="yWbwvxqH2LuNOncUtTr_-10" vertex="1">
          <mxGeometry width="98.53" height="96" as="geometry" />
        </mxCell>
        <mxCell id="yWbwvxqH2LuNOncUtTr_-12" value="&lt;font style=&quot;color: light-dark(rgb(0, 0, 0), rgb(0, 0, 0)); font-size: 21px;&quot;&gt;Client&lt;/font&gt;" style="text;strokeColor=none;align=center;fillColor=none;html=1;verticalAlign=middle;whiteSpace=wrap;rounded=0;" parent="yWbwvxqH2LuNOncUtTr_-10" vertex="1">
          <mxGeometry x="15" y="108" width="60" height="30" as="geometry" />
        </mxCell>
        <mxCell id="yWbwvxqH2LuNOncUtTr_-13" value="" style="group" parent="1" connectable="0" vertex="1">
          <mxGeometry x="1135" y="65" width="102" height="118" as="geometry" />
        </mxCell>
        <mxCell id="yWbwvxqH2LuNOncUtTr_-14" value="" style="sketch=0;points=[[0,0,0],[0.25,0,0],[0.5,0,0],[0.75,0,0],[1,0,0],[0,1,0],[0.25,1,0],[0.5,1,0],[0.75,1,0],[1,1,0],[0,0.25,0],[0,0.5,0],[0,0.75,0],[1,0.25,0],[1,0.5,0],[1,0.75,0]];outlineConnect=0;fontColor=#232F3E;fillColor=#7AA116;strokeColor=#ffffff;dashed=0;verticalLabelPosition=bottom;verticalAlign=top;align=center;html=1;fontSize=12;fontStyle=0;aspect=fixed;shape=mxgraph.aws4.resourceIcon;resIcon=mxgraph.aws4.s3;" parent="yWbwvxqH2LuNOncUtTr_-13" vertex="1">
          <mxGeometry x="11" width="78" height="78" as="geometry" />
        </mxCell>
        <mxCell id="yWbwvxqH2LuNOncUtTr_-15" value="&lt;font style=&quot;color: light-dark(rgb(0, 0, 0), rgb(0, 0, 0));&quot;&gt;S3 for Processed Images&lt;/font&gt;" style="text;strokeColor=none;align=center;fillColor=none;html=1;verticalAlign=middle;whiteSpace=wrap;rounded=0;" parent="yWbwvxqH2LuNOncUtTr_-13" vertex="1">
          <mxGeometry y="88" width="102" height="30" as="geometry" />
        </mxCell>
        <mxCell id="yWbwvxqH2LuNOncUtTr_-16" value="" style="group" parent="1" connectable="0" vertex="1">
          <mxGeometry x="915" y="65" width="102" height="118" as="geometry" />
        </mxCell>
        <mxCell id="yWbwvxqH2LuNOncUtTr_-17" value="" style="sketch=0;points=[[0,0,0],[0.25,0,0],[0.5,0,0],[0.75,0,0],[1,0,0],[0,1,0],[0.25,1,0],[0.5,1,0],[0.75,1,0],[1,1,0],[0,0.25,0],[0,0.5,0],[0,0.75,0],[1,0.25,0],[1,0.5,0],[1,0.75,0]];outlineConnect=0;fontColor=#232F3E;fillColor=#7AA116;strokeColor=#ffffff;dashed=0;verticalLabelPosition=bottom;verticalAlign=top;align=center;html=1;fontSize=12;fontStyle=0;aspect=fixed;shape=mxgraph.aws4.resourceIcon;resIcon=mxgraph.aws4.s3;" parent="yWbwvxqH2LuNOncUtTr_-16" vertex="1">
          <mxGeometry x="9" width="78" height="78" as="geometry" />
        </mxCell>
        <mxCell id="yWbwvxqH2LuNOncUtTr_-18" value="&lt;font style=&quot;color: light-dark(rgb(0, 0, 0), rgb(0, 0, 0));&quot;&gt;S3 for Original Images&lt;/font&gt;" style="text;strokeColor=none;align=center;fillColor=none;html=1;verticalAlign=middle;whiteSpace=wrap;rounded=0;" parent="yWbwvxqH2LuNOncUtTr_-16" vertex="1">
          <mxGeometry y="88" width="102" height="30" as="geometry" />
        </mxCell>
        <mxCell id="yWbwvxqH2LuNOncUtTr_-21" style="edgeStyle=orthogonalEdgeStyle;rounded=0;orthogonalLoop=1;jettySize=auto;html=1;exitX=0.5;exitY=0;exitDx=0;exitDy=0;" parent="1" source="yWbwvxqH2LuNOncUtTr_-69" target="yWbwvxqH2LuNOncUtTr_-5" edge="1">
          <mxGeometry relative="1" as="geometry" />
        </mxCell>
        <mxCell id="yWbwvxqH2LuNOncUtTr_-22" value="" style="group" parent="1" connectable="0" vertex="1">
          <mxGeometry x="402" y="573" width="78" height="120" as="geometry" />
        </mxCell>
        <mxCell id="yWbwvxqH2LuNOncUtTr_-23" value="" style="sketch=0;points=[[0,0,0],[0.25,0,0],[0.5,0,0],[0.75,0,0],[1,0,0],[0,1,0],[0.25,1,0],[0.5,1,0],[0.75,1,0],[1,1,0],[0,0.25,0],[0,0.5,0],[0,0.75,0],[1,0.25,0],[1,0.5,0],[1,0.75,0]];outlineConnect=0;fontColor=#232F3E;fillColor=#E7157B;strokeColor=#ffffff;dashed=0;verticalLabelPosition=bottom;verticalAlign=top;align=center;html=1;fontSize=12;fontStyle=0;aspect=fixed;shape=mxgraph.aws4.resourceIcon;resIcon=mxgraph.aws4.sns;" parent="yWbwvxqH2LuNOncUtTr_-22" vertex="1">
          <mxGeometry width="78" height="78" as="geometry" />
        </mxCell>
        <mxCell id="yWbwvxqH2LuNOncUtTr_-24" value="&lt;font style=&quot;color: light-dark(rgb(0, 0, 0), rgb(0, 0, 0));&quot;&gt;SNS&lt;/font&gt;" style="text;whiteSpace=wrap;html=1;" parent="yWbwvxqH2LuNOncUtTr_-22" vertex="1">
          <mxGeometry x="22" y="84" width="39" height="36" as="geometry" />
        </mxCell>
        <mxCell id="yWbwvxqH2LuNOncUtTr_-25" value="" style="group" parent="1" connectable="0" vertex="1">
          <mxGeometry x="402" y="733" width="78" height="111" as="geometry" />
        </mxCell>
        <mxCell id="yWbwvxqH2LuNOncUtTr_-26" value="" style="sketch=0;points=[[0,0,0],[0.25,0,0],[0.5,0,0],[0.75,0,0],[1,0,0],[0,1,0],[0.25,1,0],[0.5,1,0],[0.75,1,0],[1,1,0],[0,0.25,0],[0,0.5,0],[0,0.75,0],[1,0.25,0],[1,0.5,0],[1,0.75,0]];points=[[0,0,0],[0.25,0,0],[0.5,0,0],[0.75,0,0],[1,0,0],[0,1,0],[0.25,1,0],[0.5,1,0],[0.75,1,0],[1,1,0],[0,0.25,0],[0,0.5,0],[0,0.75,0],[1,0.25,0],[1,0.5,0],[1,0.75,0]];outlineConnect=0;fontColor=#232F3E;fillColor=#E7157B;strokeColor=#ffffff;dashed=0;verticalLabelPosition=bottom;verticalAlign=top;align=center;html=1;fontSize=12;fontStyle=0;aspect=fixed;shape=mxgraph.aws4.resourceIcon;resIcon=mxgraph.aws4.cloudwatch_2;" parent="yWbwvxqH2LuNOncUtTr_-25" vertex="1">
          <mxGeometry width="78" height="78" as="geometry" />
        </mxCell>
        <mxCell id="yWbwvxqH2LuNOncUtTr_-27" value="&lt;font style=&quot;color: light-dark(rgb(0, 0, 0), rgb(0, 0, 0));&quot;&gt;CloudWatch&lt;/font&gt;" style="text;strokeColor=none;align=center;fillColor=none;html=1;verticalAlign=middle;whiteSpace=wrap;rounded=0;" parent="yWbwvxqH2LuNOncUtTr_-25" vertex="1">
          <mxGeometry x="9" y="81" width="60" height="30" as="geometry" />
        </mxCell>
        <mxCell id="yWbwvxqH2LuNOncUtTr_-28" style="edgeStyle=orthogonalEdgeStyle;rounded=0;orthogonalLoop=1;jettySize=auto;html=1;strokeColor=light-dark(#000000,#000000);" parent="1" source="yWbwvxqH2LuNOncUtTr_-41" edge="1">
          <mxGeometry relative="1" as="geometry">
            <mxPoint x="138.10469891274033" y="437" as="sourcePoint" />
            <mxPoint x="535" y="438" as="targetPoint" />
            <Array as="points" />
          </mxGeometry>
        </mxCell>
        <mxCell id="yWbwvxqH2LuNOncUtTr_-29" value="" style="group" parent="1" connectable="0" vertex="1">
          <mxGeometry x="732" y="311" width="78" height="116.5" as="geometry" />
        </mxCell>
        <mxCell id="yWbwvxqH2LuNOncUtTr_-30" value="" style="sketch=0;outlineConnect=0;fontColor=#232F3E;gradientColor=none;fillColor=#8C4FFF;strokeColor=none;dashed=0;verticalLabelPosition=bottom;verticalAlign=top;align=center;html=1;fontSize=12;fontStyle=0;aspect=fixed;pointerEvents=1;shape=mxgraph.aws4.nat_gateway;" parent="yWbwvxqH2LuNOncUtTr_-29" vertex="1">
          <mxGeometry width="78" height="78" as="geometry" />
        </mxCell>
        <mxCell id="yWbwvxqH2LuNOncUtTr_-31" value="&lt;font style=&quot;color: light-dark(rgb(0, 0, 0), rgb(0, 0, 0));&quot;&gt;NAT Instance&lt;/font&gt;" style="text;strokeColor=none;align=center;fillColor=none;html=1;verticalAlign=middle;whiteSpace=wrap;rounded=0;" parent="yWbwvxqH2LuNOncUtTr_-29" vertex="1">
          <mxGeometry x="9" y="86.5" width="60" height="30" as="geometry" />
        </mxCell>
        <mxCell id="yWbwvxqH2LuNOncUtTr_-32" style="edgeStyle=orthogonalEdgeStyle;rounded=0;orthogonalLoop=1;jettySize=auto;html=1;strokeColor=light-dark(#000000,#000000);" parent="1" target="yWbwvxqH2LuNOncUtTr_-9" edge="1">
          <mxGeometry relative="1" as="geometry">
            <mxPoint x="613" y="437" as="sourcePoint" />
            <Array as="points">
              <mxPoint x="685" y="438" />
              <mxPoint x="685" y="532" />
            </Array>
          </mxGeometry>
        </mxCell>
        <mxCell id="yWbwvxqH2LuNOncUtTr_-33" value="1" style="ellipse;whiteSpace=wrap;html=1;aspect=fixed;strokeWidth=2;fontFamily=Tahoma;spacingBottom=4;spacingRight=2;strokeColor=#d3d3d3;fontSize=11;fontColor=default;labelBackgroundColor=default;" parent="1" vertex="1">
          <mxGeometry x="170" y="362" width="20" height="20" as="geometry" />
        </mxCell>
        <mxCell id="yWbwvxqH2LuNOncUtTr_-34" value="4" style="ellipse;whiteSpace=wrap;html=1;aspect=fixed;strokeWidth=2;fontFamily=Tahoma;spacingBottom=4;spacingRight=2;strokeColor=#d3d3d3;fontSize=11;fontColor=default;labelBackgroundColor=default;" parent="1" vertex="1">
          <mxGeometry x="1446" y="303" width="20" height="20" as="geometry" />
        </mxCell>
        <mxCell id="yWbwvxqH2LuNOncUtTr_-35" value="5" style="ellipse;whiteSpace=wrap;html=1;aspect=fixed;strokeWidth=2;fontFamily=Tahoma;spacingBottom=4;spacingRight=2;strokeColor=#d3d3d3;fontSize=11;fontColor=default;labelBackgroundColor=default;" parent="1" vertex="1">
          <mxGeometry x="199" y="362" width="20" height="20" as="geometry" />
        </mxCell>
        <mxCell id="yWbwvxqH2LuNOncUtTr_-36" value="" style="group" parent="1" connectable="0" vertex="1">
          <mxGeometry x="393" y="200" width="102" height="118" as="geometry" />
        </mxCell>
        <mxCell id="yWbwvxqH2LuNOncUtTr_-37" value="" style="group" parent="yWbwvxqH2LuNOncUtTr_-36" connectable="0" vertex="1">
          <mxGeometry width="102" height="118" as="geometry" />
        </mxCell>
        <mxCell id="yWbwvxqH2LuNOncUtTr_-38" value="&lt;font style=&quot;color: light-dark(rgb(0, 0, 0), rgb(0, 0, 0));&quot;&gt;S3 for FrontEnd&lt;/font&gt;" style="text;strokeColor=none;align=center;fillColor=none;html=1;verticalAlign=middle;whiteSpace=wrap;rounded=0;" parent="yWbwvxqH2LuNOncUtTr_-37" vertex="1">
          <mxGeometry y="88" width="102" height="30" as="geometry" />
        </mxCell>
        <mxCell id="yWbwvxqH2LuNOncUtTr_-39" value="" style="sketch=0;points=[[0,0,0],[0.25,0,0],[0.5,0,0],[0.75,0,0],[1,0,0],[0,1,0],[0.25,1,0],[0.5,1,0],[0.75,1,0],[1,1,0],[0,0.25,0],[0,0.5,0],[0,0.75,0],[1,0.25,0],[1,0.5,0],[1,0.75,0]];outlineConnect=0;fontColor=#232F3E;fillColor=#7AA116;strokeColor=#ffffff;dashed=0;verticalLabelPosition=bottom;verticalAlign=top;align=center;html=1;fontSize=12;fontStyle=0;aspect=fixed;shape=mxgraph.aws4.resourceIcon;resIcon=mxgraph.aws4.s3;" parent="yWbwvxqH2LuNOncUtTr_-36" vertex="1">
          <mxGeometry x="12" y="9" width="78" height="78" as="geometry" />
        </mxCell>
        <mxCell id="yWbwvxqH2LuNOncUtTr_-40" style="edgeStyle=orthogonalEdgeStyle;shape=connector;rounded=0;orthogonalLoop=1;jettySize=auto;html=1;strokeColor=light-dark(#000000,#000000);align=center;verticalAlign=middle;fontFamily=Helvetica;fontSize=12;fontColor=light-dark(#000000,#000000);labelBackgroundColor=none;endArrow=classic;" parent="1" source="yWbwvxqH2LuNOncUtTr_-41" target="yWbwvxqH2LuNOncUtTr_-39" edge="1">
          <mxGeometry relative="1" as="geometry" />
        </mxCell>
        <mxCell id="yWbwvxqH2LuNOncUtTr_-41" value="&lt;font style=&quot;color: light-dark(rgb(0, 0, 0), rgb(0, 0, 0));&quot;&gt;CloudFront&lt;/font&gt;" style="sketch=0;points=[[0,0,0],[0.25,0,0],[0.5,0,0],[0.75,0,0],[1,0,0],[0,1,0],[0.25,1,0],[0.5,1,0],[0.75,1,0],[1,1,0],[0,0.25,0],[0,0.5,0],[0,0.75,0],[1,0.25,0],[1,0.5,0],[1,0.75,0]];outlineConnect=0;fontColor=#232F3E;fillColor=#8C4FFF;strokeColor=#ffffff;dashed=0;verticalLabelPosition=bottom;verticalAlign=top;align=center;html=1;fontSize=12;fontStyle=0;aspect=fixed;shape=mxgraph.aws4.resourceIcon;resIcon=mxgraph.aws4.cloudfront;rounded=0;fontFamily=Helvetica;labelBackgroundColor=none;" parent="1" vertex="1">
          <mxGeometry x="405" y="400" width="78" height="78" as="geometry" />
        </mxCell>
        <mxCell id="yWbwvxqH2LuNOncUtTr_-42" style="edgeStyle=orthogonalEdgeStyle;shape=connector;rounded=0;orthogonalLoop=1;jettySize=auto;html=1;strokeColor=light-dark(#000000,#000000);align=center;verticalAlign=middle;fontFamily=Helvetica;fontSize=12;fontColor=light-dark(#000000,#000000);labelBackgroundColor=none;endArrow=classic;startArrow=classic;startFill=1;" parent="1" source="yWbwvxqH2LuNOncUtTr_-11" target="yWbwvxqH2LuNOncUtTr_-41" edge="1">
          <mxGeometry relative="1" as="geometry">
            <Array as="points">
              <mxPoint x="203" y="439" />
              <mxPoint x="203" y="439" />
            </Array>
          </mxGeometry>
        </mxCell>
        <mxCell id="yWbwvxqH2LuNOncUtTr_-43" style="edgeStyle=orthogonalEdgeStyle;shape=connector;rounded=0;orthogonalLoop=1;jettySize=auto;html=1;strokeColor=light-dark(#000000,#000000);align=center;verticalAlign=middle;fontFamily=Helvetica;fontSize=12;fontColor=light-dark(#000000,#000000);labelBackgroundColor=none;endArrow=classic;startArrow=classic;startFill=1;" parent="1" source="yWbwvxqH2LuNOncUtTr_-47" target="yWbwvxqH2LuNOncUtTr_-17" edge="1">
          <mxGeometry relative="1" as="geometry">
            <Array as="points">
              <mxPoint x="963" y="223" />
            </Array>
          </mxGeometry>
        </mxCell>
        <mxCell id="yWbwvxqH2LuNOncUtTr_-44" style="edgeStyle=orthogonalEdgeStyle;shape=connector;rounded=0;orthogonalLoop=1;jettySize=auto;html=1;strokeColor=light-dark(#000000,#000000);align=center;verticalAlign=middle;fontFamily=Helvetica;fontSize=11;fontColor=default;labelBackgroundColor=default;endArrow=classic;entryX=0;entryY=0.5;entryDx=0;entryDy=0;entryPerimeter=0;" parent="1" source="yWbwvxqH2LuNOncUtTr_-30" edge="1">
          <mxGeometry relative="1" as="geometry">
            <Array as="points">
              <mxPoint x="835" y="352" />
              <mxPoint x="835" y="187" />
              <mxPoint x="1278" y="187" />
              <mxPoint x="1278" y="103" />
            </Array>
            <mxPoint x="766.0243902439026" y="474.5" as="sourcePoint" />
            <mxPoint x="1377" y="103" as="targetPoint" />
          </mxGeometry>
        </mxCell>
        <mxCell id="yWbwvxqH2LuNOncUtTr_-45" style="edgeStyle=orthogonalEdgeStyle;shape=connector;rounded=0;orthogonalLoop=1;jettySize=auto;html=1;strokeColor=light-dark(#000000,#000000);align=center;verticalAlign=middle;fontFamily=Helvetica;fontSize=11;fontColor=default;labelBackgroundColor=default;endArrow=classic;startArrow=block;startFill=1;" parent="1" source="yWbwvxqH2LuNOncUtTr_-30" target="yWbwvxqH2LuNOncUtTr_-66" edge="1">
          <mxGeometry relative="1" as="geometry">
            <Array as="points">
              <mxPoint x="797" y="245" />
              <mxPoint x="1134" y="245" />
            </Array>
          </mxGeometry>
        </mxCell>
        <mxCell id="yWbwvxqH2LuNOncUtTr_-46" style="edgeStyle=orthogonalEdgeStyle;shape=connector;rounded=0;orthogonalLoop=1;jettySize=auto;html=1;strokeColor=light-dark(#000000,#000000);align=center;verticalAlign=middle;fontFamily=Helvetica;fontSize=11;fontColor=default;labelBackgroundColor=default;endArrow=classic;" parent="1" source="yWbwvxqH2LuNOncUtTr_-47" target="yWbwvxqH2LuNOncUtTr_-14" edge="1">
          <mxGeometry relative="1" as="geometry">
            <Array as="points">
              <mxPoint x="1056" y="102" />
            </Array>
          </mxGeometry>
        </mxCell>
        <mxCell id="yWbwvxqH2LuNOncUtTr_-47" value="" style="sketch=0;outlineConnect=0;fontColor=#232F3E;gradientColor=none;fillColor=#8C4FFF;strokeColor=none;dashed=0;verticalLabelPosition=bottom;verticalAlign=top;align=center;html=1;fontSize=12;fontStyle=0;aspect=fixed;pointerEvents=1;shape=mxgraph.aws4.endpoints;rounded=0;fontFamily=Helvetica;labelBackgroundColor=none;" parent="1" vertex="1">
          <mxGeometry x="1029" y="198" width="54" height="54" as="geometry" />
        </mxCell>
        <mxCell id="yWbwvxqH2LuNOncUtTr_-48" style="edgeStyle=orthogonalEdgeStyle;shape=connector;rounded=0;orthogonalLoop=1;jettySize=auto;html=1;strokeColor=light-dark(#000000,#000000);align=center;verticalAlign=middle;fontFamily=Helvetica;fontSize=12;fontColor=light-dark(#000000,#000000);labelBackgroundColor=none;endArrow=classic;" parent="1" source="yWbwvxqH2LuNOncUtTr_-66" target="yWbwvxqH2LuNOncUtTr_-47" edge="1">
          <mxGeometry relative="1" as="geometry">
            <Array as="points">
              <mxPoint x="1058" y="298" />
              <mxPoint x="1058" y="298" />
            </Array>
          </mxGeometry>
        </mxCell>
        <mxCell id="yWbwvxqH2LuNOncUtTr_-49" value="6" style="ellipse;whiteSpace=wrap;html=1;aspect=fixed;strokeWidth=2;fontFamily=Tahoma;spacingBottom=4;spacingRight=2;strokeColor=#d3d3d3;fontSize=11;fontColor=default;labelBackgroundColor=default;" parent="1" vertex="1">
          <mxGeometry x="170" y="393" width="20" height="20" as="geometry" />
        </mxCell>
        <mxCell id="yWbwvxqH2LuNOncUtTr_-50" value="7" style="ellipse;whiteSpace=wrap;html=1;aspect=fixed;strokeWidth=2;fontFamily=Tahoma;spacingBottom=4;spacingRight=2;strokeColor=#d3d3d3;fontSize=11;fontColor=default;labelBackgroundColor=default;" parent="1" vertex="1">
          <mxGeometry x="957" y="423" width="20" height="20" as="geometry" />
        </mxCell>
        <mxCell id="yWbwvxqH2LuNOncUtTr_-51" value="9" style="ellipse;whiteSpace=wrap;html=1;aspect=fixed;strokeWidth=2;fontFamily=Tahoma;spacingBottom=4;spacingRight=2;strokeColor=#d3d3d3;fontSize=11;fontColor=default;labelBackgroundColor=default;" parent="1" vertex="1">
          <mxGeometry x="976" y="193" width="20" height="20" as="geometry" />
        </mxCell>
        <mxCell id="yWbwvxqH2LuNOncUtTr_-52" value="10" style="ellipse;whiteSpace=wrap;html=1;aspect=fixed;strokeWidth=2;fontFamily=Tahoma;spacingBottom=4;spacingRight=2;strokeColor=#d3d3d3;fontSize=11;fontColor=default;labelBackgroundColor=default;" parent="1" vertex="1">
          <mxGeometry x="199" y="393" width="20" height="20" as="geometry" />
        </mxCell>
        <mxCell id="yWbwvxqH2LuNOncUtTr_-53" value="11" style="ellipse;whiteSpace=wrap;html=1;aspect=fixed;rotation=0;gradientColor=#0057D2;strokeColor=none;gradientDirection=east;fillColor=#2395FF;rounded=0;pointerEvents=0;fontFamily=Helvetica;fontSize=16;fontColor=#FFFFFF;spacingTop=4;spacingBottom=4;spacingLeft=4;spacingRight=4;points=[];fontStyle=1;align=center;verticalAlign=middle;labelBackgroundColor=none;" parent="1" vertex="1">
          <mxGeometry x="99" y="113" width="30" height="30" as="geometry" />
        </mxCell>
        <mxCell id="yWbwvxqH2LuNOncUtTr_-54" style="edgeStyle=orthogonalEdgeStyle;shape=connector;rounded=0;orthogonalLoop=1;jettySize=auto;html=1;entryX=0;entryY=0.5;entryDx=0;entryDy=0;entryPerimeter=0;strokeColor=light-dark(#000000,#000000);align=center;verticalAlign=middle;fontFamily=Helvetica;fontSize=12;fontColor=light-dark(#000000,#000000);labelBackgroundColor=none;endArrow=classic;" parent="1" source="yWbwvxqH2LuNOncUtTr_-11" target="yWbwvxqH2LuNOncUtTr_-17" edge="1">
          <mxGeometry relative="1" as="geometry">
            <Array as="points">
              <mxPoint x="91" y="104" />
            </Array>
          </mxGeometry>
        </mxCell>
        <mxCell id="yWbwvxqH2LuNOncUtTr_-55" value="13" style="ellipse;whiteSpace=wrap;html=1;aspect=fixed;rotation=0;gradientColor=#0057D2;strokeColor=none;gradientDirection=east;fillColor=#2395FF;rounded=0;pointerEvents=0;fontFamily=Helvetica;fontSize=16;fontColor=#FFFFFF;spacingTop=4;spacingBottom=4;spacingLeft=4;spacingRight=4;points=[];fontStyle=1;align=center;verticalAlign=middle;labelBackgroundColor=none;" parent="1" vertex="1">
          <mxGeometry x="1485" y="327" width="30" height="30" as="geometry" />
        </mxCell>
        <mxCell id="yWbwvxqH2LuNOncUtTr_-56" value="" style="group" parent="1" connectable="0" vertex="1">
          <mxGeometry x="1377" y="65" width="78" height="118" as="geometry" />
        </mxCell>
        <mxCell id="yWbwvxqH2LuNOncUtTr_-57" value="" style="sketch=0;points=[[0,0,0],[0.25,0,0],[0.5,0,0],[0.75,0,0],[1,0,0],[0,1,0],[0.25,1,0],[0.5,1,0],[0.75,1,0],[1,1,0],[0,0.25,0],[0,0.5,0],[0,0.75,0],[1,0.25,0],[1,0.5,0],[1,0.75,0]];outlineConnect=0;fontColor=#232F3E;fillColor=#E7157B;strokeColor=#ffffff;dashed=0;verticalLabelPosition=bottom;verticalAlign=top;align=center;html=1;fontSize=12;fontStyle=0;aspect=fixed;shape=mxgraph.aws4.resourceIcon;resIcon=mxgraph.aws4.sqs;" parent="yWbwvxqH2LuNOncUtTr_-56" vertex="1">
          <mxGeometry width="78" height="78" as="geometry" />
        </mxCell>
        <mxCell id="yWbwvxqH2LuNOncUtTr_-58" value="&lt;font style=&quot;color: light-dark(rgb(0, 0, 0), rgb(0, 0, 0));&quot;&gt;SQS&lt;/font&gt;" style="text;strokeColor=none;align=center;fillColor=none;html=1;verticalAlign=middle;whiteSpace=wrap;rounded=0;" parent="yWbwvxqH2LuNOncUtTr_-56" vertex="1">
          <mxGeometry x="6" y="88" width="60" height="30" as="geometry" />
        </mxCell>
        <mxCell id="yWbwvxqH2LuNOncUtTr_-59" value="" style="sketch=0;points=[[0,0,0],[0.25,0,0],[0.5,0,0],[0.75,0,0],[1,0,0],[0,1,0],[0.25,1,0],[0.5,1,0],[0.75,1,0],[1,1,0],[0,0.25,0],[0,0.5,0],[0,0.75,0],[1,0.25,0],[1,0.5,0],[1,0.75,0]];outlineConnect=0;fontColor=#232F3E;fillColor=#C925D1;strokeColor=#ffffff;dashed=0;verticalLabelPosition=bottom;verticalAlign=top;align=center;html=1;fontSize=12;fontStyle=0;aspect=fixed;shape=mxgraph.aws4.resourceIcon;resIcon=mxgraph.aws4.rds;" parent="1" vertex="1">
          <mxGeometry x="1450" y="365" width="64" height="64" as="geometry" />
        </mxCell>
        <mxCell id="yWbwvxqH2LuNOncUtTr_-60" style="edgeStyle=orthogonalEdgeStyle;shape=connector;rounded=0;orthogonalLoop=1;jettySize=auto;html=1;strokeColor=light-dark(#000000,#000000);align=center;verticalAlign=middle;fontFamily=Helvetica;fontSize=11;fontColor=default;labelBackgroundColor=default;endArrow=classic;startArrow=classic;startFill=1;" parent="1" source="yWbwvxqH2LuNOncUtTr_-66" target="yWbwvxqH2LuNOncUtTr_-59" edge="1">
          <mxGeometry relative="1" as="geometry">
            <Array as="points">
              <mxPoint x="1165" y="297" />
              <mxPoint x="1482" y="297" />
            </Array>
          </mxGeometry>
        </mxCell>
        <mxCell id="yWbwvxqH2LuNOncUtTr_-61" value="Auto Scaling Group&lt;br&gt;Worker Img Processing" style="points=[[0,0],[0.25,0],[0.5,0],[0.75,0],[1,0],[1,0.25],[1,0.5],[1,0.75],[1,1],[0.75,1],[0.5,1],[0.25,1],[0,1],[0,0.75],[0,0.5],[0,0.25]];outlineConnect=0;gradientColor=none;html=1;whiteSpace=wrap;fontSize=12;fontStyle=0;container=0;pointerEvents=0;collapsible=0;recursiveResize=0;shape=mxgraph.aws4.groupCenter;grIcon=mxgraph.aws4.group_auto_scaling_group;grStroke=1;strokeColor=#D86613;fillColor=none;verticalAlign=top;align=center;fontColor=#D86613;dashed=1;spacingTop=25;" parent="1" vertex="1">
          <mxGeometry x="1241" y="311" width="188" height="442" as="geometry" />
        </mxCell>
        <mxCell id="yWbwvxqH2LuNOncUtTr_-62" value="VPC" style="points=[[0,0],[0.25,0],[0.5,0],[0.75,0],[1,0],[1,0.25],[1,0.5],[1,0.75],[1,1],[0.75,1],[0.5,1],[0.25,1],[0,1],[0,0.75],[0,0.5],[0,0.25]];outlineConnect=0;gradientColor=none;html=1;whiteSpace=wrap;fontSize=12;fontStyle=0;container=0;pointerEvents=0;collapsible=0;recursiveResize=0;shape=mxgraph.aws4.group;grIcon=mxgraph.aws4.group_vpc2;strokeColor=#8C4FFF;fillColor=none;verticalAlign=top;align=left;spacingLeft=30;fontColor=#AAB7B8;dashed=0;" parent="1" vertex="1">
          <mxGeometry x="574" y="236" width="972" height="604" as="geometry" />
        </mxCell>
        <mxCell id="yWbwvxqH2LuNOncUtTr_-63" value="" style="sketch=0;outlineConnect=0;fontColor=#232F3E;gradientColor=none;fillColor=#8C4FFF;strokeColor=none;dashed=0;verticalLabelPosition=bottom;verticalAlign=top;align=center;html=1;fontSize=12;fontStyle=0;aspect=fixed;pointerEvents=1;shape=mxgraph.aws4.internet_gateway;" parent="1" vertex="1">
          <mxGeometry x="535" y="398" width="78" height="78" as="geometry" />
        </mxCell>
        <mxCell id="yWbwvxqH2LuNOncUtTr_-64" value="&lt;font style=&quot;color: light-dark(rgb(0, 0, 0), rgb(0, 0, 0));&quot;&gt;ALB&lt;/font&gt;" style="text;strokeColor=none;align=center;fillColor=none;html=1;verticalAlign=middle;whiteSpace=wrap;rounded=0;flipV=1;flipH=1;" parent="1" vertex="1">
          <mxGeometry x="738" y="582" width="60" height="30" as="geometry" />
        </mxCell>
        <mxCell id="yWbwvxqH2LuNOncUtTr_-66" value="Auto Scaling Group&lt;br&gt;API" style="points=[[0,0],[0.25,0],[0.5,0],[0.75,0],[1,0],[1,0.25],[1,0.5],[1,0.75],[1,1],[0.75,1],[0.5,1],[0.25,1],[0,1],[0,0.75],[0,0.5],[0,0.25]];outlineConnect=0;gradientColor=none;html=1;whiteSpace=wrap;fontSize=12;fontStyle=0;container=0;pointerEvents=0;collapsible=0;recursiveResize=0;shape=mxgraph.aws4.groupCenter;grIcon=mxgraph.aws4.group_auto_scaling_group;grStroke=1;strokeColor=#D86613;fillColor=none;verticalAlign=top;align=center;fontColor=#D86613;dashed=1;spacingTop=25;" parent="1" vertex="1">
          <mxGeometry x="996" y="311" width="206" height="442" as="geometry" />
        </mxCell>
        <mxCell id="yWbwvxqH2LuNOncUtTr_-67" value="" style="sketch=0;points=[[0,0,0],[0.25,0,0],[0.5,0,0],[0.75,0,0],[1,0,0],[0,1,0],[0.25,1,0],[0.5,1,0],[0.75,1,0],[1,1,0],[0,0.25,0],[0,0.5,0],[0,0.75,0],[1,0.25,0],[1,0.5,0],[1,0.75,0]];outlineConnect=0;fontColor=#232F3E;fillColor=#ED7100;strokeColor=#ffffff;dashed=0;verticalLabelPosition=bottom;verticalAlign=top;align=center;html=1;fontSize=12;fontStyle=0;aspect=fixed;shape=mxgraph.aws4.resourceIcon;resIcon=mxgraph.aws4.ec2;" parent="1" vertex="1">
          <mxGeometry x="1060" y="383" width="78" height="78" as="geometry" />
        </mxCell>
        <mxCell id="yWbwvxqH2LuNOncUtTr_-68" value="" style="sketch=0;points=[[0,0,0],[0.25,0,0],[0.5,0,0],[0.75,0,0],[1,0,0],[0,1,0],[0.25,1,0],[0.5,1,0],[0.75,1,0],[1,1,0],[0,0.25,0],[0,0.5,0],[0,0.75,0],[1,0.25,0],[1,0.5,0],[1,0.75,0]];outlineConnect=0;fontColor=#232F3E;fillColor=#C925D1;strokeColor=#ffffff;dashed=0;verticalLabelPosition=bottom;verticalAlign=top;align=center;html=1;fontSize=12;fontStyle=0;aspect=fixed;shape=mxgraph.aws4.resourceIcon;resIcon=mxgraph.aws4.rds;" parent="1" vertex="1">
          <mxGeometry x="1448" y="602" width="64" height="64" as="geometry" />
        </mxCell>
        <mxCell id="yWbwvxqH2LuNOncUtTr_-69" value="&lt;font style=&quot;color: light-dark(rgb(0, 0, 0), rgb(0, 0, 0));&quot;&gt;Standby RDS&lt;/font&gt;" style="text;strokeColor=none;align=center;fillColor=none;html=1;verticalAlign=middle;whiteSpace=wrap;rounded=0;" parent="1" vertex="1">
          <mxGeometry x="1452" y="686" width="60" height="30" as="geometry" />
        </mxCell>
        <mxCell id="yWbwvxqH2LuNOncUtTr_-70" value="&lt;font style=&quot;color: light-dark(rgb(0, 0, 0), rgb(0, 0, 0));&quot;&gt;RDS&lt;/font&gt;" style="text;strokeColor=none;align=center;fillColor=none;html=1;verticalAlign=middle;whiteSpace=wrap;rounded=0;" parent="1" vertex="1">
          <mxGeometry x="1452" y="446" width="60" height="30" as="geometry" />
        </mxCell>
        <mxCell id="yWbwvxqH2LuNOncUtTr_-71" value="2" style="ellipse;whiteSpace=wrap;html=1;aspect=fixed;strokeWidth=2;fontFamily=Tahoma;spacingBottom=4;spacingRight=2;strokeColor=#d3d3d3;fontSize=11;fontColor=default;labelBackgroundColor=default;" parent="1" vertex="1">
          <mxGeometry x="956" y="388" width="20" height="20" as="geometry" />
        </mxCell>
        <mxCell id="yWbwvxqH2LuNOncUtTr_-72" value="3" style="ellipse;whiteSpace=wrap;html=1;aspect=fixed;strokeWidth=2;fontFamily=Tahoma;spacingBottom=4;spacingRight=2;strokeColor=#d3d3d3;fontSize=11;fontColor=default;labelBackgroundColor=default;" parent="1" vertex="1">
          <mxGeometry x="1176" y="302" width="20" height="20" as="geometry" />
        </mxCell>
        <mxCell id="yWbwvxqH2LuNOncUtTr_-73" value="" style="sketch=0;points=[[0,0,0],[0.25,0,0],[0.5,0,0],[0.75,0,0],[1,0,0],[0,1,0],[0.25,1,0],[0.5,1,0],[0.75,1,0],[1,1,0],[0,0.25,0],[0,0.5,0],[0,0.75,0],[1,0.25,0],[1,0.5,0],[1,0.75,0]];outlineConnect=0;fontColor=#232F3E;fillColor=#ED7100;strokeColor=#ffffff;dashed=0;verticalLabelPosition=bottom;verticalAlign=top;align=center;html=1;fontSize=12;fontStyle=0;aspect=fixed;shape=mxgraph.aws4.resourceIcon;resIcon=mxgraph.aws4.ec2;" parent="1" vertex="1">
          <mxGeometry x="1060" y="602" width="78" height="78" as="geometry" />
        </mxCell>
        <mxCell id="yWbwvxqH2LuNOncUtTr_-74" value="8" style="ellipse;whiteSpace=wrap;html=1;aspect=fixed;strokeWidth=2;fontFamily=Tahoma;spacingBottom=4;spacingRight=2;strokeColor=#d3d3d3;fontSize=11;fontColor=default;labelBackgroundColor=default;" parent="1" vertex="1">
          <mxGeometry x="1492" y="302" width="20" height="20" as="geometry" />
        </mxCell>
        <mxCell id="yWbwvxqH2LuNOncUtTr_-75" value="12" style="ellipse;whiteSpace=wrap;html=1;aspect=fixed;rotation=0;gradientColor=#0057D2;strokeColor=none;gradientDirection=east;fillColor=#2395FF;rounded=0;pointerEvents=0;fontFamily=Helvetica;fontSize=16;fontColor=#FFFFFF;spacingTop=4;spacingBottom=4;spacingLeft=4;spacingRight=4;points=[];fontStyle=1;align=center;verticalAlign=middle;labelBackgroundColor=none;" parent="1" vertex="1">
          <mxGeometry x="913" y="420" width="30" height="30" as="geometry" />
        </mxCell>
        <mxCell id="yWbwvxqH2LuNOncUtTr_-76" style="edgeStyle=orthogonalEdgeStyle;shape=connector;rounded=0;orthogonalLoop=1;jettySize=auto;html=1;exitX=0.5;exitY=1;exitDx=0;exitDy=0;exitPerimeter=0;strokeColor=light-dark(#000000,#000000);align=center;verticalAlign=middle;fontFamily=Helvetica;fontSize=11;fontColor=default;labelBackgroundColor=default;endArrow=none;startFill=1;startArrow=classic;" parent="1" source="yWbwvxqH2LuNOncUtTr_-57" target="yWbwvxqH2LuNOncUtTr_-30" edge="1">
          <mxGeometry relative="1" as="geometry" />
        </mxCell>
        <mxCell id="yWbwvxqH2LuNOncUtTr_-77" value="14" style="ellipse;whiteSpace=wrap;html=1;aspect=fixed;rotation=0;gradientColor=#0057D2;strokeColor=none;gradientDirection=east;fillColor=#2395FF;rounded=0;pointerEvents=0;fontFamily=Helvetica;fontSize=16;fontColor=#FFFFFF;spacingTop=4;spacingBottom=4;spacingLeft=4;spacingRight=4;points=[];fontStyle=1;align=center;verticalAlign=middle;labelBackgroundColor=none;" parent="1" vertex="1">
          <mxGeometry x="1275" y="177" width="30" height="30" as="geometry" />
        </mxCell>
        <mxCell id="yWbwvxqH2LuNOncUtTr_-78" value="15" style="ellipse;whiteSpace=wrap;html=1;aspect=fixed;rotation=0;gradientColor=#0057D2;strokeColor=none;gradientDirection=east;fillColor=#2395FF;rounded=0;pointerEvents=0;fontFamily=Helvetica;fontSize=16;fontColor=#FFFFFF;spacingTop=4;spacingBottom=4;spacingLeft=4;spacingRight=4;points=[];fontStyle=1;align=center;verticalAlign=middle;labelBackgroundColor=none;" parent="1" vertex="1">
          <mxGeometry x="1425" y="188" width="30" height="30" as="geometry" />
        </mxCell>
        <mxCell id="yWbwvxqH2LuNOncUtTr_-81" value="&lt;font style=&quot;color: light-dark(rgb(0, 0, 0), rgb(0, 0, 0));&quot;&gt;Gateway Endpoint&lt;/font&gt;" style="text;strokeColor=none;align=center;fillColor=none;html=1;verticalAlign=middle;whiteSpace=wrap;rounded=0;" parent="1" vertex="1">
          <mxGeometry x="1023" y="252" width="60" height="30" as="geometry" />
        </mxCell>
        <mxCell id="yWbwvxqH2LuNOncUtTr_-82" value="16" style="ellipse;whiteSpace=wrap;html=1;aspect=fixed;rotation=0;gradientColor=#0057D2;strokeColor=none;gradientDirection=east;fillColor=#2395FF;rounded=0;pointerEvents=0;fontFamily=Helvetica;fontSize=16;fontColor=#FFFFFF;spacingTop=4;spacingBottom=4;spacingLeft=4;spacingRight=4;points=[];fontStyle=1;align=center;verticalAlign=middle;labelBackgroundColor=none;" parent="1" vertex="1">
          <mxGeometry x="1393" y="248" width="30" height="30" as="geometry" />
        </mxCell>
        <mxCell id="yWbwvxqH2LuNOncUtTr_-83" style="edgeStyle=orthogonalEdgeStyle;shape=connector;rounded=0;orthogonalLoop=1;jettySize=auto;html=1;entryX=0;entryY=0.5;entryDx=0;entryDy=0;entryPerimeter=0;strokeColor=light-dark(#000000,#000000);align=center;verticalAlign=middle;fontFamily=Helvetica;fontSize=11;fontColor=default;labelBackgroundColor=default;endArrow=classic;" parent="1" source="yWbwvxqH2LuNOncUtTr_-61" target="yWbwvxqH2LuNOncUtTr_-59" edge="1">
          <mxGeometry relative="1" as="geometry">
            <Array as="points">
              <mxPoint x="1438" y="397" />
              <mxPoint x="1438" y="397" />
            </Array>
          </mxGeometry>
        </mxCell>
        <mxCell id="yWbwvxqH2LuNOncUtTr_-84" value="17" style="ellipse;whiteSpace=wrap;html=1;aspect=fixed;rotation=0;gradientColor=#0057D2;strokeColor=none;gradientDirection=east;fillColor=#2395FF;rounded=0;pointerEvents=0;fontFamily=Helvetica;fontSize=16;fontColor=#FFFFFF;spacingTop=4;spacingBottom=4;spacingLeft=4;spacingRight=4;points=[];fontStyle=1;align=center;verticalAlign=middle;labelBackgroundColor=none;" parent="1" vertex="1">
          <mxGeometry x="1422" y="418" width="30" height="30" as="geometry" />
        </mxCell>
        <mxCell id="yWbwvxqH2LuNOncUtTr_-85" value="&lt;span style=&quot;background-color: light-dark(rgb(230, 246, 247), rgb(255, 255, 255));&quot;&gt;&lt;font style=&quot;color: light-dark(rgb(0, 0, 0), rgb(0, 0, 0));&quot;&gt;Either use gateway endpoint with vpc endpoints or gateway endpoints with nat instance&lt;/font&gt;&lt;/span&gt;" style="text;html=1;align=center;verticalAlign=middle;resizable=0;points=[];autosize=1;strokeColor=none;fillColor=none;fontFamily=Helvetica;fontSize=11;fontColor=default;labelBackgroundColor=default;" parent="1" vertex="1">
          <mxGeometry x="924" y="909" width="443" height="25" as="geometry" />
        </mxCell>
        <mxCell id="yWbwvxqH2LuNOncUtTr_-86" value="Text" style="text;html=1;align=center;verticalAlign=middle;resizable=0;points=[];autosize=1;strokeColor=none;fillColor=none;" parent="1" vertex="1">
          <mxGeometry x="1678" y="500" width="40" height="26" as="geometry" />
        </mxCell>
        <mxCell id="shluyT5yb2386gyo7XWY-4" style="edgeStyle=orthogonalEdgeStyle;rounded=0;orthogonalLoop=1;jettySize=auto;html=1;" edge="1" parent="1" source="shluyT5yb2386gyo7XWY-2" target="yWbwvxqH2LuNOncUtTr_-4">
          <mxGeometry relative="1" as="geometry" />
        </mxCell>
        <mxCell id="shluyT5yb2386gyo7XWY-2" value="&lt;font style=&quot;color: light-dark(rgb(0, 0, 0), rgb(0, 0, 0));&quot;&gt;Fargate&lt;/font&gt;" style="sketch=0;points=[[0,0,0],[0.25,0,0],[0.5,0,0],[0.75,0,0],[1,0,0],[0,1,0],[0.25,1,0],[0.5,1,0],[0.75,1,0],[1,1,0],[0,0.25,0],[0,0.5,0],[0,0.75,0],[1,0.25,0],[1,0.5,0],[1,0.75,0]];outlineConnect=0;fontColor=#232F3E;fillColor=#ED7100;strokeColor=#ffffff;dashed=0;verticalLabelPosition=bottom;verticalAlign=top;align=center;html=1;fontSize=12;fontStyle=0;aspect=fixed;shape=mxgraph.aws4.resourceIcon;resIcon=mxgraph.aws4.fargate;" vertex="1" parent="1">
          <mxGeometry x="1299" y="388" width="78" height="78" as="geometry" />
        </mxCell>
        <mxCell id="shluyT5yb2386gyo7XWY-3" value="" style="sketch=0;points=[[0,0,0],[0.25,0,0],[0.5,0,0],[0.75,0,0],[1,0,0],[0,1,0],[0.25,1,0],[0.5,1,0],[0.75,1,0],[1,1,0],[0,0.25,0],[0,0.5,0],[0,0.75,0],[1,0.25,0],[1,0.5,0],[1,0.75,0]];outlineConnect=0;fontColor=#232F3E;fillColor=#ED7100;strokeColor=#ffffff;dashed=0;verticalLabelPosition=bottom;verticalAlign=top;align=center;html=1;fontSize=12;fontStyle=0;aspect=fixed;shape=mxgraph.aws4.resourceIcon;resIcon=mxgraph.aws4.fargate;" vertex="1" parent="1">
          <mxGeometry x="1299" y="602" width="78" height="78" as="geometry" />
        </mxCell>
      </root>
    </mxGraphModel>
  </diagram>
</mxfile>
